<svg width="47" height="46" viewBox="0 0 47 46" fill="none" xmlns="http://www.w3.org/2000/svg">
<rect width="46.0191" height="46" rx="8" fill="#DC6803"/>
<path d="M38.0191 22.3637V23.4775C37.9685 23.9703 37.9339 24.4655 37.8646 24.9555C37.5996 26.8382 36.9881 28.604 36.0676 30.267C36.0018 30.3856 35.9836 30.5677 36.0189 30.6999C36.4342 32.2519 36.8618 33.8009 37.2918 35.3494C37.5286 36.2011 37.7765 37.05 38.0191 37.9V37.9587C37.8869 37.9311 37.7512 37.9135 37.6225 37.8741C35.4784 37.2168 33.3332 36.5648 31.1949 35.8886C30.8836 35.7899 30.6527 35.8269 30.3796 35.9861C28.4452 37.1146 26.3587 37.7842 24.1253 37.9528C20.9972 38.1896 18.0507 37.5399 15.3797 35.8957C10.8359 33.0989 8.35231 29.0063 8.02747 23.6737C7.84595 20.6943 8.56614 17.8905 10.1275 15.3416C12.5036 11.4611 15.9395 9.07499 20.4245 8.2338C20.9878 8.12806 21.5617 8.07637 22.131 8C22.7172 8 23.3035 8 23.8897 8C23.9749 8.01704 24.0589 8.03877 24.1447 8.05111C24.839 8.15273 25.5439 8.20795 26.2265 8.36009C32.2153 9.69707 36.7761 14.4952 37.787 20.5092C37.8904 21.1231 37.9427 21.7452 38.0191 22.3637ZM35.4532 35.3664C35.4303 35.2524 35.4221 35.196 35.4074 35.1414C35.0173 33.721 34.6472 32.2953 34.2249 30.8849C34.081 30.405 34.1391 30.0367 34.3911 29.6061C36.1422 26.612 36.6721 23.4146 35.9061 20.017C34.4499 13.5582 28.1726 9.08086 21.6129 9.82866C18.8255 10.1465 16.3354 11.1838 14.2636 13.0789C10.5563 16.4707 9.07426 20.6943 10.0488 25.6239C10.9346 30.1037 13.6027 33.2893 17.7705 35.152C20.549 36.3938 23.4439 36.5747 26.3869 35.7782C27.7832 35.4005 29.0661 34.7643 30.2809 33.9883C30.4401 33.8867 30.5811 33.8544 30.7685 33.9178C31.2948 34.0958 31.8288 34.2526 32.3598 34.4165C33.3743 34.729 34.3894 35.0404 35.4526 35.367L35.4532 35.3664Z" fill="white"/>
<path d="M13.2593 22.9968C13.2722 17.6342 17.6356 13.3061 23 13.3343C28.2739 13.3619 32.5974 17.7241 32.5833 23.0074C32.5686 28.3254 28.3115 32.643 22.9601 32.6647C17.5833 32.6864 13.2464 28.3254 13.2593 22.9968ZM20.4089 24.7433H25.5864V21.2704H20.4089V24.7433ZM25.2921 19.4764C25.2968 19.4376 25.308 19.4083 25.3027 19.3818C25.2622 19.1815 25.2205 18.9812 25.1764 18.7815C24.9362 17.6988 24.5902 16.6556 23.9287 15.7509C23.292 14.881 22.7157 14.8845 22.0795 15.7492C21.2665 16.8541 20.9511 18.1476 20.6832 19.4752H25.2921V19.4764ZM20.682 26.5249C20.7419 26.7998 20.7919 27.0377 20.8459 27.2751C21.0844 28.3177 21.4081 29.3287 22.0437 30.2069C22.7163 31.1362 23.2967 31.1356 23.964 30.2057C24.5115 29.4427 24.8334 28.5744 25.0666 27.6722C25.1629 27.2997 25.2375 26.922 25.3268 26.5249H20.682ZM18.6407 24.7532V21.2539H15.2113C14.9581 22.4288 14.9517 23.586 15.2172 24.7532H18.6407ZM30.6277 24.7521C30.888 23.5778 30.8909 22.4218 30.6289 21.2628H27.3728V24.7521H30.6277ZM20.0147 15.6916C18.1461 16.4253 16.7745 17.6847 15.8504 19.4735H18.8898C19.1224 18.1676 19.4478 16.8994 20.0153 15.6916H20.0147ZM20.0282 30.325C19.4502 29.1184 19.1248 27.8466 18.8915 26.5431H15.8522C16.7933 28.3342 18.1661 29.5936 20.0282 30.325ZM27.1431 19.4664H29.9945C29.091 17.7423 27.7875 16.5064 26.0241 15.7327C26.2538 16.373 26.4964 16.9681 26.6796 17.5814C26.8635 18.1958 26.9886 18.8273 27.1431 19.4664ZM27.1202 26.5237C26.8858 27.809 26.571 29.0667 25.9577 30.3056C27.7881 29.4879 29.0969 28.2525 29.9921 26.5237H27.1202Z" fill="white"/>
</svg>
